<svg width="65" height="65" viewBox="0 0 65 65" fill="none" xmlns="http://www.w3.org/2000/svg">
<rect width="65" height="65" rx="10" fill="#6374F4"/>
<rect y="1" width="64" height="64" rx="10" fill="#6374F4"/>
<path d="M27.1654 15C27.239 15.8113 26.7728 17.617 27.5949 18.3522C28.4162 19.0867 29.2526 18.5644 29.6719 18.0276L30.0215 17.7104C30.5925 17.3245 30.8128 16.225 29.9438 15.5537C29.067 14.8761 28.379 15.1669 27.1654 15ZM35.8349 15C34.6215 15.1669 33.9325 14.8761 33.0559 15.5537C32.1873 16.225 32.4076 17.3245 32.9781 17.7104L33.3278 18.0276C33.7472 18.5644 34.584 19.0867 35.4051 18.3522C36.2273 17.617 35.762 15.8113 35.8349 15ZM20.3871 16.276C20.4479 16.9579 20.057 18.476 20.7481 19.094C21.4384 19.7114 22.1413 19.2723 22.4938 18.8211L22.7878 18.5543C23.2678 18.23 23.4531 17.3057 22.7229 16.7413C21.9859 16.1718 21.4071 16.4162 20.3871 16.276ZM42.6129 16.276C41.5929 16.4163 41.014 16.1718 40.2771 16.7413C39.5469 17.3057 39.7322 18.23 40.2122 18.5543L40.5062 18.8211C40.8585 19.2723 41.562 19.7114 42.2522 19.094C42.9432 18.476 42.5516 16.9579 42.6129 16.276ZM25.5182 21.1298C25.6116 22.1731 25.0132 24.4954 26.0706 25.4408C27.1265 26.3853 28.2026 25.7134 28.7419 25.0231L29.1917 24.6153C29.9258 24.1192 30.2089 22.7049 29.0925 21.8415C27.9651 20.9701 27.0787 21.3444 25.5182 21.1298ZM37.4818 21.1298C35.9213 21.3444 35.0356 20.9701 33.9082 21.8415C32.7912 22.7049 33.0744 24.1192 33.808 24.6153L34.2578 25.0231C34.797 25.7134 35.873 26.3853 36.9291 25.4408C37.9863 24.4954 37.388 22.1731 37.4818 21.1298ZM18.4185 22.4422C17.3892 22.4394 16.4577 22.8851 15 23.0746C15.4728 24.3794 15.4902 27.5655 17.1651 28.4085C18.8382 29.2506 19.9907 28.0138 20.4486 26.9407L20.887 26.2607C21.6605 25.3683 21.5454 23.4569 19.8215 22.7401C19.3052 22.5252 18.8533 22.4436 18.4185 22.4422ZM44.5818 22.4422C44.1472 22.4436 43.6946 22.5252 43.1781 22.7401C41.4545 23.4569 41.3395 25.3683 42.113 26.2607L42.5514 26.9407C43.0093 28.0138 44.162 29.2506 45.8349 28.4085C47.5098 27.5655 47.5271 24.3794 48 23.0746C46.5425 22.8851 45.6111 22.439 44.5818 22.4422ZM31.5002 28.2494L26.2779 52H36.7221L31.5002 28.2494ZM23.4187 29.3979C23.5432 30.7826 22.7482 33.8644 24.1514 35.1192C25.553 36.3727 26.9808 35.481 27.6964 34.5649L28.2934 34.0239C29.268 33.3654 29.6438 31.4885 28.1618 30.3427C26.6656 29.1862 25.4897 29.6827 23.4187 29.3979ZM39.5813 29.3979C37.5103 29.6827 36.3351 29.1862 34.8389 30.3427C33.3565 31.4885 33.7324 33.3654 34.7073 34.0239L35.3039 34.5649C36.0195 35.481 37.4474 36.3727 38.8489 35.1192C40.252 33.8644 39.4569 30.7826 39.5813 29.3979ZM18.6922 31.8453C17.9164 31.8425 17.2148 32.1791 16.1166 32.3219C16.4729 33.305 16.486 35.7056 17.748 36.3407C19.0085 36.9753 19.8766 36.0433 20.2216 35.2347L20.5522 34.7223C21.1351 34.0499 21.0486 32.6097 19.7497 32.0695C19.3605 31.9077 19.0196 31.8464 18.6922 31.8453ZM44.3078 31.8453C43.9804 31.8467 43.6395 31.9076 43.2503 32.0695C41.9516 32.6097 41.8649 34.0499 42.4478 34.7223L42.7784 35.2347C43.1234 36.0433 43.9915 36.9753 45.252 36.3407C46.5142 35.7056 46.5274 33.305 46.8838 32.3219C45.7855 32.1791 45.0835 31.8428 44.3078 31.8453Z" fill="white"/>
</svg>
