<svg width="65" height="65" viewBox="0 0 65 65" fill="none" xmlns="http://www.w3.org/2000/svg">
<rect width="65" height="65" rx="10" fill="#6374F4"/>
<mask id="mask0_1407_2345" style="mask-type:alpha" maskUnits="userSpaceOnUse" x="12" y="13" width="40" height="40">
<rect x="12" y="13" width="40" height="40" fill="#D9D9D9"/>
</mask>
<g mask="url(#mask0_1407_2345)">
<path d="M13.9445 35.8333C13.2963 34.7037 12.8102 33.5648 12.4861 32.4167C12.162 31.2685 12 30.1296 12 29C12 25.9259 13.0648 23.3241 15.1945 21.1945C17.3241 19.0648 19.9259 18 23 18C24.75 18 26.412 18.3634 27.9861 19.0903C29.5602 19.8171 30.8981 20.8148 32 22.0833C33.1019 20.8148 34.4398 19.8171 36.0139 19.0903C37.588 18.3634 39.25 18 41 18C44.0741 18 46.6759 19.0648 48.8055 21.1945C50.9352 23.3241 52 25.9259 52 29C52 30.1296 51.838 31.2639 51.5139 32.4028C51.1898 33.5417 50.7037 34.6759 50.0555 35.8056C49.7685 35.4074 49.4398 35.0602 49.0695 34.7639C48.6991 34.4676 48.2917 34.2223 47.8472 34.0278C48.3009 33.1667 48.6435 32.3195 48.875 31.4861C49.1065 30.6528 49.2223 29.8241 49.2223 29C49.2223 26.7037 48.4259 24.7593 46.8333 23.1667C45.2408 21.5741 43.2963 20.7777 41 20.7777C39.2315 20.7777 37.6505 21.2847 36.257 22.2986C34.8634 23.3125 33.4444 24.6852 32 26.4166C30.5556 24.6759 29.1366 23.3009 27.743 22.2916C26.3495 21.2824 24.7685 20.7777 23 20.7777C20.7037 20.7777 18.7593 21.5741 17.1667 23.1667C15.5741 24.7593 14.7778 26.7037 14.7778 29C14.7778 29.8241 14.8935 30.6528 15.125 31.4861C15.3565 32.3195 15.6991 33.1667 16.1528 34.0278C15.7083 34.2223 15.3009 34.4723 14.9305 34.7778C14.5602 35.0833 14.2315 35.4352 13.9445 35.8333ZM12 49.6667V47.3195C12 46.1898 12.5949 45.2801 13.7847 44.5903C14.9745 43.9005 16.5093 43.5556 18.3889 43.5556C18.75 43.5556 19.0879 43.5625 19.4028 43.5764C19.7176 43.5903 20.0278 43.625 20.3333 43.6806C20.0556 44.1806 19.8472 44.6991 19.7083 45.2361C19.5694 45.7732 19.5 46.3472 19.5 46.9583V49.6667H12ZM22 49.6667V46.9583C22 45.1528 22.9236 43.6944 24.7708 42.5833C26.6181 41.4722 29.0278 40.9167 32 40.9167C35 40.9167 37.4167 41.4722 39.25 42.5833C41.0833 43.6944 42 45.1528 42 46.9583V49.6667H22ZM44.5 49.6667V46.9583C44.5 46.3472 44.4375 45.7732 44.3125 45.2361C44.1875 44.6991 43.9907 44.1806 43.7222 43.6806C44.0278 43.625 44.3357 43.5903 44.6458 43.5764C44.956 43.5625 45.2778 43.5556 45.6111 43.5556C47.5185 43.5556 49.0602 43.9005 50.2361 44.5903C51.412 45.2801 52 46.1898 52 47.3195V49.6667H44.5ZM32 43.6944C29.9907 43.6944 28.3148 43.9861 26.9722 44.5694C25.6296 45.1528 24.9213 45.8796 24.8472 46.75V46.8889H39.1667V46.7222C39.0834 45.8704 38.3773 45.1528 37.0486 44.5694C35.7199 43.9861 34.0371 43.6944 32 43.6944ZM18.3889 42.1667C17.5463 42.1667 16.8264 41.8681 16.2292 41.2709C15.6319 40.6737 15.3333 39.9537 15.3333 39.1111C15.3333 38.2593 15.6319 37.5371 16.2292 36.9445C16.8264 36.3519 17.5463 36.0556 18.3889 36.0556C19.2407 36.0556 19.963 36.3519 20.5555 36.9445C21.1481 37.5371 21.4444 38.2593 21.4444 39.1111C21.4444 39.9537 21.1481 40.6737 20.5555 41.2709C19.963 41.8681 19.2407 42.1667 18.3889 42.1667ZM45.6111 42.1667C44.7685 42.1667 44.0486 41.8681 43.4514 41.2709C42.8542 40.6737 42.5556 39.9537 42.5556 39.1111C42.5556 38.2593 42.8542 37.5371 43.4514 36.9445C44.0486 36.3519 44.7685 36.0556 45.6111 36.0556C46.463 36.0556 47.1852 36.3519 47.7778 36.9445C48.3704 37.5371 48.6667 38.2593 48.6667 39.1111C48.6667 39.9537 48.3704 40.6737 47.7778 41.2709C47.1852 41.8681 46.463 42.1667 45.6111 42.1667ZM32 39.6667C30.6111 39.6667 29.4306 39.1806 28.4583 38.2083C27.4861 37.2361 27 36.0556 27 34.6667C27 33.25 27.4861 32.0625 28.4583 31.1042C29.4306 30.1458 30.6111 29.6667 32 29.6667C33.4167 29.6667 34.6042 30.1458 35.5625 31.1042C36.5208 32.0625 37 33.25 37 34.6667C37 36.0556 36.5208 37.2361 35.5625 38.2083C34.6042 39.1806 33.4167 39.6667 32 39.6667ZM32 32.4444C31.3796 32.4444 30.8542 32.6551 30.4236 33.0764C29.993 33.4977 29.7778 34.0278 29.7778 34.6667C29.7778 35.287 29.993 35.8125 30.4236 36.2431C30.8542 36.6736 31.3796 36.8889 32 36.8889C32.6389 36.8889 33.169 36.6736 33.5903 36.2431C34.0116 35.8125 34.2222 35.287 34.2222 34.6667C34.2222 34.0278 34.0116 33.4977 33.5903 33.0764C33.169 32.6551 32.6389 32.4444 32 32.4444Z" fill="white"/>
</g>
</svg>
