<svg width="16" height="16" viewBox="0 0 16 16" fill="none" xmlns="http://www.w3.org/2000/svg">
<path d="M15.0667 16C13.1556 16 11.2927 15.5778 9.47822 14.7333C7.66311 13.8889 6.0557 12.763 4.656 11.3556C3.2557 9.94815 2.12978 8.33689 1.27822 6.52178C0.426074 4.70726 0 2.84444 0 0.933334V0.466667C0 0.303704 0.0148148 0.148148 0.0444444 0H5.24444L6.06667 4.46667L3.53333 7.02222C4.15556 8.08889 4.93719 9.08889 5.87822 10.0222C6.81867 10.9556 7.85185 11.763 8.97778 12.4444L11.5556 9.86667L16 10.7556V15.9556C15.8519 15.9704 15.6963 15.9816 15.5333 15.9893C15.3704 15.9964 15.2148 16 15.0667 16Z" fill="#C9CDD2"/>
</svg>
