<svg width="13" height="16" viewBox="0 0 13 16" fill="none" xmlns="http://www.w3.org/2000/svg">
<path d="M6.4 8C6.84 8 7.2168 7.8432 7.5304 7.5296C7.84347 7.21653 8 6.84 8 6.4C8 5.96 7.84347 5.5832 7.5304 5.2696C7.2168 4.95653 6.84 4.8 6.4 4.8C5.96 4.8 5.58347 4.95653 5.2704 5.2696C4.9568 5.5832 4.8 5.96 4.8 6.4C4.8 6.84 4.9568 7.21653 5.2704 7.5296C5.58347 7.8432 5.96 8 6.4 8ZM6.4 16C4.25333 14.1733 2.65013 12.4765 1.5904 10.9096C0.530133 9.3432 0 7.89333 0 6.56C0 4.56 0.643467 2.96667 1.9304 1.78C3.2168 0.593333 4.70667 0 6.4 0C8.09333 0 9.5832 0.593333 10.8696 1.78C12.1565 2.96667 12.8 4.56 12.8 6.56C12.8 7.89333 12.2701 9.3432 11.2104 10.9096C10.1501 12.4765 8.54667 14.1733 6.4 16Z" fill="#C9CDD2"/>
</svg>
