<svg width="174" height="50" viewBox="0 0 174 50" fill="none" xmlns="http://www.w3.org/2000/svg">
<g clip-path="url(#clip0_431_2899)">
<path d="M55.0534 2.94537C51.5712 2.94537 48.791 3.7409 46.7131 5.33154C44.6352 6.90783 43.5966 8.98553 43.5966 11.5649C43.5966 13.5568 44.0696 15.1906 45.0154 16.466C45.9755 17.7414 47.1075 18.7228 48.4115 19.4106C49.7299 20.0985 51.5067 20.8436 53.7422 21.6461C55.9921 22.4486 57.4108 23.1294 57.9983 23.6883C58.5858 24.2472 58.8796 24.8419 58.8796 25.4724C58.8796 27.321 57.4106 28.245 54.473 28.245C52.7391 28.245 51.0984 27.9371 49.5508 27.321C48.0031 26.7048 46.2261 25.7229 44.2198 24.3759V30.8461C47.7163 32.7807 51.3275 33.7479 55.0534 33.7479C58.507 33.7479 61.2868 32.9239 63.3934 31.2759C65.5142 29.628 66.5747 27.4141 66.5747 24.634C66.5747 22.6852 66.0875 21.0729 65.1131 19.7976C64.153 18.5222 63.0063 17.5334 61.6737 16.8312C60.341 16.1291 58.5643 15.3696 56.3431 14.5528C54.122 13.736 52.7245 13.0697 52.1513 12.5538C51.5782 12.038 51.292 11.4934 51.292 10.9202C51.292 10.175 51.6857 9.58042 52.4738 9.13619C53.2763 8.67763 54.3513 8.44819 55.6983 8.44819C58.0627 8.44819 61.2366 9.34386 65.2203 11.1351V5.26704C61.6521 3.7194 58.2633 2.94537 55.0534 2.94537ZM80.3101 3.33229L68.208 33.361H76.1399L78.3756 27.4284H91.8098L94.2819 33.361H102.321L88.9941 3.33229H80.3101ZM97.6136 3.33229L109.457 19.3248V33.361H116.937V19.3248L128.781 3.33229H119.753L113.197 12.7688L106.684 3.33229H97.6136ZM132.091 3.33229V33.361H144.494C150.083 33.361 154.382 32.0355 157.391 29.3844C160.415 26.7191 161.926 23.0576 161.926 18.4004C161.926 13.9581 160.436 10.3397 157.456 7.54536C154.489 4.73668 150.448 3.33229 145.332 3.33229H132.091ZM139.572 8.8351H144.365C147.546 8.8351 149.982 9.68765 151.673 11.3929C153.378 13.0839 154.231 15.4055 154.231 18.3575C154.231 21.2092 153.393 23.5089 151.716 25.2571C150.04 26.991 147.618 27.8582 144.451 27.8582H139.572V8.8351ZM84.7595 10.5117L89.5957 22.1834H80.3529L84.7595 10.5117Z" fill="white"/>
<path d="M166.505 6.47067C166.505 5.49623 166.849 4.66503 167.536 3.97718C168.224 3.28934 169.048 2.94543 170.008 2.94543C170.983 2.94543 171.814 3.28934 172.502 3.97718C173.19 4.66503 173.534 5.49623 173.534 6.47067C173.534 7.43078 173.19 8.26191 172.502 8.96408C171.814 9.65192 170.983 9.99583 170.008 9.99583C169.048 9.99583 168.224 9.65192 167.536 8.96408C166.849 8.26191 166.505 7.43078 166.505 6.47067ZM173.233 13.0696V33.3609H166.849V13.0696H173.233Z" fill="white"/>
<path d="M12.261 0C12.3351 0.804575 11.8653 2.59531 12.6938 3.32443C13.5215 4.05276 14.3644 3.53477 14.787 3.00245L15.1394 2.68787C15.7148 2.30524 15.9368 1.21488 15.061 0.54908C14.1774 -0.12292 13.484 0.165504 12.261 0ZM20.9982 0C19.7753 0.165504 19.0809 -0.12292 18.1974 0.54908C17.3221 1.21488 17.5441 2.30524 18.1191 2.68787L18.4715 3.00245C18.8942 3.53477 19.7375 4.05276 20.5651 3.32443C21.3937 2.59531 20.9248 0.804575 20.9982 0ZM5.42966 1.26537C5.49099 1.94168 5.09698 3.44719 5.79351 4.06004C6.48919 4.67226 7.19762 4.23687 7.55287 3.78942L7.84917 3.5248C8.33292 3.20318 8.5196 2.28654 7.78371 1.72689C7.04097 1.16203 6.45763 1.4045 5.42966 1.26537ZM27.8292 1.26537C26.8012 1.40457 26.2177 1.16208 25.4751 1.72689C24.7392 2.28654 24.9259 3.20318 25.4096 3.5248L25.7059 3.78942C26.0611 4.23687 26.77 4.67226 27.4657 4.06004C28.162 3.44719 27.7674 1.94168 27.8292 1.26537ZM10.6008 6.07888C10.695 7.11354 10.092 9.41658 11.1576 10.3542C12.2218 11.2908 13.3062 10.6245 13.8497 9.93994L14.303 9.53553C15.0429 9.04348 15.3282 7.64092 14.2031 6.78473C13.0669 5.92056 12.1736 6.2917 10.6008 6.07888ZM22.658 6.07888C21.0852 6.2917 20.1926 5.92056 19.0564 6.78473C17.9307 7.64092 18.2161 9.04348 18.9554 9.53553L19.4088 9.93994C19.9521 10.6245 21.0366 11.2908 22.1009 10.3542C23.1664 9.41658 22.5634 7.11354 22.658 6.07888ZM3.44573 7.38047C2.40835 7.37761 1.46956 7.81962 0.000488281 8.00763C0.476964 9.30153 0.494547 12.4612 2.18253 13.2972C3.86867 14.1323 5.03014 12.9058 5.49164 11.8416L5.93348 11.1672C6.71301 10.2822 6.59703 8.3867 4.85969 7.67581C4.33929 7.46279 3.88385 7.38185 3.44573 7.38047ZM29.8134 7.38047C29.3755 7.38178 28.9193 7.46279 28.3988 7.67581C26.6617 8.3867 26.5458 10.2822 27.3253 11.1672L27.7672 11.8416C28.2287 12.9058 29.3903 14.1323 31.0763 13.2972C32.7643 12.4612 32.7817 9.30153 33.2583 8.00763C31.7894 7.81962 30.8508 7.37721 29.8134 7.38047ZM16.6296 13.1395L11.3665 36.6929H21.8923L16.6296 13.1395ZM8.48495 14.2784C8.61045 15.6516 7.80927 18.7079 9.22344 19.9522C10.6359 21.1953 12.0749 20.311 12.7961 19.4025L13.3978 18.866C14.38 18.2129 14.7587 16.3517 13.2651 15.2154C11.7573 14.0685 10.5721 14.5609 8.48495 14.2784ZM24.7739 14.2784C22.6867 14.5609 21.5023 14.0685 19.9944 15.2154C18.5004 16.3517 18.8793 18.2129 19.8617 18.866L20.463 19.4025C21.1842 20.311 22.6233 21.1953 24.0357 19.9522C25.4498 18.7079 24.6485 15.6516 24.7739 14.2784ZM3.72149 16.7055C2.93968 16.7027 2.23264 17.0365 1.12581 17.1782C1.48491 18.1531 1.49808 20.5337 2.76991 21.1636C4.04033 21.7929 4.91519 20.8686 5.26289 20.0668L5.59609 19.5586C6.18352 18.8918 6.09633 17.4635 4.78727 16.9278C4.39508 16.7673 4.0515 16.7065 3.72149 16.7055ZM29.5373 16.7055C29.2073 16.7068 28.8637 16.7673 28.4715 16.9278C27.1626 17.4635 27.0753 18.8918 27.6627 19.5586L27.9959 20.0668C28.3436 20.8686 29.2185 21.7929 30.4889 21.1636C31.7609 20.5337 31.7743 18.1531 32.1334 17.1782C31.0265 17.0366 30.319 16.7031 29.5373 16.7055Z" fill="white"/>
<path d="M10.7329 46.4549L10.1268 46.0881C9.74667 45.8568 9.47551 45.6295 9.31335 45.4062C9.15385 45.1802 9.07409 44.921 9.07409 44.6286C9.07409 44.19 9.22562 43.8338 9.52868 43.5599C9.8344 43.2861 10.2305 43.1492 10.717 43.1492C11.1822 43.1492 11.6089 43.2795 11.997 43.54V44.4452C11.5956 44.0597 11.1636 43.867 10.701 43.867C10.4405 43.867 10.2265 43.9281 10.059 44.0504C9.89155 44.17 9.80781 44.3242 9.80781 44.513C9.80781 44.6805 9.86896 44.8373 9.99124 44.9835C10.1135 45.1297 10.3116 45.2826 10.5854 45.4421L11.1955 45.801C11.8761 46.2051 12.2163 46.7208 12.2163 47.3482C12.2163 47.7948 12.0661 48.1577 11.7657 48.4368C11.468 48.7159 11.0799 48.8555 10.6013 48.8555C10.0511 48.8555 9.54995 48.6867 9.09802 48.3491V47.3362C9.52868 47.8812 10.0271 48.1537 10.5934 48.1537C10.8433 48.1537 11.0506 48.0846 11.2154 47.9463C11.3829 47.8054 11.4667 47.63 11.4667 47.4199C11.4667 47.0797 11.2221 46.758 10.7329 46.4549ZM14.8721 43.1891H15.4343L17.9266 48.7917H17.1091L16.3674 47.1408H13.9988L13.297 48.7917H12.4795L14.8721 43.1891ZM16.0404 46.431L15.1432 44.4133L14.3098 46.431H16.0404ZM21.4118 43.221H22.2053L19.8526 48.8156H19.6732L17.2726 43.221H18.0741L19.7489 47.1328L21.4118 43.221ZM22.8313 43.221H23.6289V48.7917H22.8313V43.221ZM29.2913 43.221H30.0489V48.7917H29.363L25.6386 44.505V48.7917H24.889V43.221H25.5349L29.2913 47.5436V43.221ZM34.2558 46.0482H36.126V48.4089C35.4402 48.7066 34.7596 48.8555 34.0844 48.8555C33.1619 48.8555 32.4242 48.587 31.8713 48.05C31.321 47.5103 31.0458 46.8457 31.0458 46.0562C31.0458 45.2241 31.3316 44.5316 31.9032 43.9786C32.4747 43.4257 33.1912 43.1492 34.0525 43.1492C34.3662 43.1492 34.6639 43.1838 34.9457 43.2529C35.2275 43.3194 35.5837 43.443 36.0144 43.6237V44.4372C35.3498 44.0517 34.6905 43.859 34.0365 43.859C33.4278 43.859 32.9147 44.0664 32.4973 44.4811C32.0799 44.8958 31.8713 45.4049 31.8713 46.0083C31.8713 46.641 32.0799 47.1581 32.4973 47.5595C32.9147 47.9609 33.4517 48.1616 34.1083 48.1616C34.4273 48.1616 34.8088 48.0885 35.2527 47.9423L35.3285 47.9184V46.758H34.2558V46.0482ZM40.5204 43.1891H41.0826L43.5749 48.7917H42.7574L42.0157 47.1408H39.6471L38.9453 48.7917H38.1278L40.5204 43.1891ZM41.6887 46.431L40.7915 44.4133L39.9581 46.431H41.6887ZM44.197 43.221H47.1677V43.9308H44.9945V45.486H47.1677V46.1958H44.9945V48.7917H44.197V43.221ZM48.049 48.7917V43.221H49.4446C50.0082 43.221 50.4548 43.3606 50.7845 43.6397C51.1168 43.9188 51.2829 44.2963 51.2829 44.7722C51.2829 45.0965 51.2019 45.377 51.0397 45.6136C50.8775 45.8502 50.6449 46.0269 50.3419 46.1439C50.52 46.2609 50.6941 46.4204 50.8642 46.6224C51.0344 46.8245 51.2736 47.1767 51.582 47.6791C51.7761 47.9955 51.9316 48.2334 52.0486 48.3929L52.3436 48.7917H51.3946L51.1513 48.4248C51.1434 48.4115 51.1274 48.3889 51.1035 48.357L50.948 48.1377L50.7007 47.731L50.4336 47.2963C50.2688 47.0677 50.1172 46.8856 49.979 46.75C49.8434 46.6145 49.7198 46.5174 49.6081 46.4589C49.4991 46.3978 49.3144 46.3672 49.0539 46.3672H48.8465V48.7917H48.049ZM49.0858 43.8989H48.8465V45.6574H49.1496C49.5536 45.6574 49.8301 45.6229 49.979 45.5537C50.1305 45.4846 50.2475 45.381 50.3299 45.2427C50.415 45.1018 50.4575 44.9423 50.4575 44.7642C50.4575 44.5887 50.411 44.4306 50.3179 44.2897C50.2249 44.1461 50.0933 44.0451 49.9232 43.9866C49.7557 43.9281 49.4766 43.8989 49.0858 43.8989ZM52.9697 43.221H53.7672V48.7917H52.9697V43.221ZM59.8045 47.4997V48.377C59.2196 48.696 58.5444 48.8555 57.7787 48.8555C57.1567 48.8555 56.629 48.7305 56.1957 48.4807C55.7623 48.2308 55.4194 47.8865 55.1669 47.4479C54.9143 47.0092 54.788 46.5347 54.788 46.0243C54.788 45.2135 55.0765 44.5316 55.6534 43.9786C56.2329 43.4257 56.9467 43.1492 57.7947 43.1492C58.3795 43.1492 59.0295 43.3021 59.7446 43.6078V44.4651C59.0933 44.093 58.4566 43.9069 57.8346 43.9069C57.1966 43.9069 56.6662 44.1089 56.2435 44.513C55.8235 44.9144 55.6135 45.4182 55.6135 46.0243C55.6135 46.6357 55.8208 47.1382 56.2355 47.5316C56.6503 47.925 57.1806 48.1218 57.8266 48.1218C58.5018 48.1218 59.1611 47.9144 59.8045 47.4997ZM62.7712 43.1891H63.3335L65.8257 48.7917H65.0083L64.2666 47.1408H61.8979L61.1961 48.7917H60.3787L62.7712 43.1891ZM63.9396 46.431L63.0424 44.4133L62.209 46.431H63.9396ZM70.8661 43.221H71.6237V48.7917H70.9379L67.2134 44.505V48.7917H66.4638V43.221H67.1098L70.8661 47.5436V43.221ZM77.2183 43.221H78.1833L76.1257 45.8448V48.7917H75.3083V45.8448L73.2507 43.221H74.2157L75.707 45.143L77.2183 43.221ZM80.883 43.1412C81.7443 43.1412 82.4607 43.4137 83.0323 43.9587C83.6065 44.5037 83.8936 45.1869 83.8936 46.0083C83.8936 46.8298 83.6038 47.5103 83.0243 48.05C82.4474 48.587 81.719 48.8555 80.8391 48.8555C79.999 48.8555 79.2985 48.587 78.7376 48.05C78.1794 47.5103 77.9002 46.8351 77.9002 46.0243C77.9002 45.1922 78.182 44.5037 78.7456 43.9587C79.3092 43.4137 80.0216 43.1412 80.883 43.1412ZM80.9149 43.8989C80.2768 43.8989 79.7518 44.0983 79.3398 44.497C78.9304 44.8958 78.7257 45.4049 78.7257 46.0243C78.7257 46.6251 78.9317 47.1249 79.3437 47.5236C79.7558 47.9224 80.2715 48.1218 80.8909 48.1218C81.513 48.1218 82.0314 47.9184 82.4461 47.5117C82.8635 47.1049 83.0722 46.5985 83.0722 45.9924C83.0722 45.4022 82.8635 44.9064 82.4461 44.505C82.0314 44.1009 81.521 43.8989 80.9149 43.8989ZM88.7465 43.221H89.548V46.3832C89.548 46.8112 89.5161 47.1342 89.4523 47.3522C89.3912 47.5701 89.3141 47.7523 89.2211 47.8985C89.1307 48.042 89.019 48.1709 88.8861 48.2853C88.4448 48.6654 87.8679 48.8555 87.1555 48.8555C86.4297 48.8555 85.8475 48.6667 85.4089 48.2892C85.276 48.1723 85.163 48.042 85.0699 47.8985C84.9796 47.7523 84.9038 47.5741 84.8427 47.3641C84.7842 47.1541 84.7549 46.8245 84.7549 46.3752V43.221H85.5564V46.3832C85.5564 46.9069 85.6163 47.2711 85.7359 47.4758C85.8555 47.6805 86.0376 47.8453 86.2822 47.9702C86.5268 48.0925 86.8152 48.1537 87.1475 48.1537C87.6207 48.1537 88.0062 48.0301 88.3039 47.7828C88.4607 47.6499 88.5737 47.4931 88.6428 47.3123C88.712 47.1315 88.7465 46.8218 88.7465 46.3832V43.221ZM90.1781 43.213H94.8316V43.9228H92.8896V48.7917H92.0881V43.9228H90.1781V43.213ZM99.5171 43.221H100.315V48.7917H99.5171V46.3672H96.3868V48.7917H95.5893V43.221H96.3868V45.6295H99.5171V43.221ZM102.926 46.4549L102.32 46.0881C101.94 45.8568 101.669 45.6295 101.507 45.4062C101.347 45.1802 101.268 44.921 101.268 44.6286C101.268 44.19 101.419 43.8338 101.722 43.5599C102.028 43.2861 102.424 43.1492 102.911 43.1492C103.376 43.1492 103.802 43.2795 104.191 43.54V44.4452C103.789 44.0597 103.357 43.867 102.895 43.867C102.634 43.867 102.42 43.9281 102.253 44.0504C102.085 44.17 102.001 44.3242 102.001 44.513C102.001 44.6805 102.062 44.8373 102.185 44.9835C102.307 45.1297 102.505 45.2826 102.779 45.4421L103.389 45.801C104.07 46.2051 104.41 46.7208 104.41 47.3482C104.41 47.7948 104.26 48.1577 103.959 48.4368C103.662 48.7159 103.273 48.8555 102.795 48.8555C102.245 48.8555 101.743 48.6867 101.292 48.3491V47.3362C101.722 47.8812 102.221 48.1537 102.787 48.1537C103.037 48.1537 103.244 48.0846 103.409 47.9463C103.576 47.8054 103.66 47.63 103.66 47.4199C103.66 47.0797 103.416 46.758 102.926 46.4549ZM107.568 48.7837V43.221H109.446C110.204 43.221 110.803 43.3353 111.245 43.5639C111.686 43.7899 112.037 44.1235 112.297 44.5648C112.558 45.0061 112.688 45.4873 112.688 46.0083C112.688 46.3805 112.616 46.7367 112.473 47.077C112.329 47.4173 112.125 47.7164 111.859 47.9742C111.588 48.2401 111.273 48.4408 110.914 48.5764C110.704 48.6588 110.511 48.7146 110.335 48.7438C110.16 48.7704 109.825 48.7837 109.331 48.7837H107.568ZM109.362 43.9308H108.366V48.0739H109.386C109.785 48.0739 110.095 48.0473 110.315 47.9942C110.536 47.9383 110.72 47.8692 110.866 47.7868C111.015 47.7017 111.15 47.5981 111.273 47.4758C111.666 47.077 111.863 46.5732 111.863 45.9645C111.863 45.3663 111.661 44.8785 111.257 44.501C111.108 44.3601 110.936 44.2445 110.742 44.1541C110.551 44.0637 110.369 44.0039 110.196 43.9747C110.023 43.9454 109.745 43.9308 109.362 43.9308ZM113.709 48.7917V43.221H115.105C115.668 43.221 116.115 43.3606 116.444 43.6397C116.777 43.9188 116.943 44.2963 116.943 44.7722C116.943 45.0965 116.862 45.377 116.7 45.6136C116.537 45.8502 116.305 46.0269 116.002 46.1439C116.18 46.2609 116.354 46.4204 116.524 46.6224C116.694 46.8245 116.934 47.1767 117.242 47.6791C117.436 47.9955 117.592 48.2334 117.709 48.3929L118.004 48.7917H117.055L116.811 48.4248C116.803 48.4115 116.787 48.3889 116.763 48.357L116.608 48.1377L116.361 47.731L116.094 47.2963C115.929 47.0677 115.777 46.8856 115.639 46.75C115.503 46.6145 115.38 46.5174 115.268 46.4589C115.159 46.3978 114.974 46.3672 114.714 46.3672H114.506V48.7917H113.709ZM114.746 43.8989H114.506V45.6574H114.81C115.214 45.6574 115.49 45.6229 115.639 45.5537C115.79 45.4846 115.907 45.381 115.99 45.2427C116.075 45.1018 116.117 44.9423 116.117 44.7642C116.117 44.5887 116.071 44.4306 115.978 44.2897C115.885 44.1461 115.753 44.0451 115.583 43.9866C115.416 43.9281 115.137 43.8989 114.746 43.8989ZM118.622 43.221H121.78V43.9308H119.419V45.6295H121.7V46.3433H119.419V48.0739H121.856V48.7837H118.622V43.221ZM124.483 43.1891H125.046L127.538 48.7917H126.721L125.979 47.1408H123.61L122.908 48.7917H122.091L124.483 43.1891ZM125.652 46.431L124.755 44.4133L123.921 46.431H125.652ZM132.586 43.221H133.328V48.7917H132.526V44.4572L130.812 46.6105H130.664L128.934 44.4572V48.7917H128.136V43.221H128.886L130.74 45.5099L132.586 43.221ZM136.813 43.221H137.611V48.7917H136.813V43.221ZM143.273 43.221H144.031V48.7917H143.345L139.62 44.505V48.7917H138.871V43.221H139.517L143.273 47.5436V43.221ZM145.235 43.221H146.033V48.7917H145.235V43.221ZM146.794 43.213H151.448V43.9228H149.506V48.7917H148.704V43.9228H146.794V43.213ZM152.213 43.221H153.011V48.7917H152.213V43.221ZM156.025 43.1891H156.588L159.08 48.7917H158.263L157.521 47.1408H155.152L154.45 48.7917H153.633L156.025 43.1891ZM157.194 46.431L156.297 44.4133L155.463 46.431H157.194ZM158.398 43.213H163.052V43.9228H161.11V48.7917H160.308V43.9228H158.398V43.213ZM163.817 43.221H164.615V48.7917H163.817V43.221ZM169.376 43.221H170.17L167.817 48.8156H167.637L165.237 43.221H166.038L167.713 47.1328L169.376 43.221ZM170.788 43.221H173.946V43.9308H171.585V45.6295H173.866V46.3433H171.585V48.0739H174.022V48.7837H170.788V43.221Z" fill="white"/>
</g>
<defs>
<clipPath id="clip0_431_2899">
<rect width="173.533" height="50" fill="white"/>
</clipPath>
</defs>
</svg>
