<svg width="29" height="25" viewBox="0 0 29 25" fill="none" xmlns="http://www.w3.org/2000/svg">
<path fill-rule="evenodd" clip-rule="evenodd" d="M25.1838 0.476691C25.5292 0.331309 25.9073 0.281167 26.2787 0.331485C26.6501 0.381803 27.0012 0.530742 27.2954 0.762798C27.5897 0.994855 27.8164 1.30155 27.9519 1.65095C28.0875 2.00035 28.1269 2.3797 28.066 2.7495L24.8959 21.9789C24.5883 23.8337 22.5532 24.8975 20.8521 23.9735C19.4291 23.2005 17.3157 22.0096 15.4147 20.767C14.4642 20.145 11.5526 18.1531 11.9104 16.7358C12.2179 15.5239 17.1102 10.9699 19.9058 8.26238C21.003 7.19866 20.5026 6.58503 19.2069 7.56348C15.9878 9.99284 10.8229 13.6872 9.11483 14.7272C7.60801 15.6441 6.82245 15.8007 5.88314 15.6441C4.16945 15.359 2.58016 14.9173 1.28301 14.3791C-0.469814 13.6523 -0.384549 11.2425 1.28162 10.5408L25.1838 0.476691Z" fill="white"/>
</svg>
